<svg width="443" height="130" viewBox="0 0 443 130" fill="none" xmlns="http://www.w3.org/2000/svg">
<path d="M129.705 1.99999C131.025 1.99999 132.165 2.47999 133.125 3.43999C134.085 4.4 134.565 5.54 134.565 6.85999V35.84C134.565 37.16 134.085 38.3 133.125 39.26C132.165 40.22 131.025 40.7 129.705 40.7L91.0055 40.7V123.14C91.0055 124.46 90.5255 125.6 89.5655 126.56C88.6055 127.52 87.4655 128 86.1455 128H49.0655C47.7455 128 46.6055 127.52 45.6455 126.56C44.6855 125.6 44.2055 124.46 44.2055 123.14V40.7H5.50547C4.18547 40.7 3.04547 40.22 2.08547 39.26C1.12547 38.3 0.645469 37.16 0.645469 35.84V6.85999C0.645469 5.54 1.12547 4.4 2.08547 3.43999C3.04547 2.47999 4.18547 1.99999 5.50547 1.99999L129.705 1.99999ZM287.495 75.98C287.495 94.34 281.375 107.9 269.135 116.66C257.015 125.42 240.815 129.8 220.535 129.8C200.255 129.8 183.995 125.42 171.755 116.66C159.635 107.9 153.575 94.22 153.575 75.62V54.38C153.575 42.14 156.455 32 162.215 23.96C168.095 15.8 176.075 9.79999 186.155 5.95999C196.235 2.11999 207.695 0.199993 220.535 0.199993C233.375 0.199993 244.775 2.11999 254.735 5.95999C264.815 9.79999 272.795 15.74 278.675 23.78C284.555 31.82 287.495 41.9 287.495 54.02V75.98ZM202.175 79.4C202.175 84.32 203.795 88.1 207.035 90.74C210.395 93.38 214.895 94.7 220.535 94.7C226.175 94.7 230.615 93.38 233.855 90.74C237.215 87.98 238.895 84.14 238.895 79.22V50.78C238.895 45.86 237.215 42.08 233.855 39.44C230.615 36.68 226.175 35.3 220.535 35.3C214.895 35.3 210.395 36.62 207.035 39.26C203.795 41.9 202.175 45.68 202.175 50.6V79.4ZM397.045 6.85999C398.845 3.61999 401.425 1.99999 404.785 1.99999L437.725 1.99999C439.045 1.99999 440.185 2.47999 441.145 3.43999C442.105 4.4 442.585 5.54 442.585 6.85999V123.14C442.585 124.46 442.105 125.6 441.145 126.56C440.185 127.52 439.045 128 437.725 128H405.145C403.825 128 402.685 127.52 401.725 126.56C400.765 125.6 400.285 124.46 400.285 123.14V67.34L387.145 93.26C386.785 94.1 385.945 95.06 384.625 96.14C383.305 97.22 381.625 97.76 379.585 97.76H367.345C365.305 97.76 363.625 97.22 362.305 96.14C360.985 95.06 360.145 94.1 359.785 93.26L346.645 67.34V123.14C346.645 124.46 346.165 125.6 345.205 126.56C344.245 127.52 343.105 128 341.785 128H309.205C307.885 128 306.745 127.52 305.785 126.56C304.825 125.6 304.345 124.46 304.345 123.14V6.85999C304.345 5.54 304.825 4.4 305.785 3.43999C306.745 2.47999 307.885 1.99999 309.205 1.99999L342.145 1.99999C345.505 1.99999 348.085 3.61999 349.885 6.85999L373.465 50.06L397.045 6.85999Z" fill="#D5FF40"/>
</svg>
