<svg width="539" height="276" viewBox="0 0 539 276" fill="none" xmlns="http://www.w3.org/2000/svg">
<path d="M35.5001 12H289.5V72.2165L35.5001 57.7164V12Z" fill="white"/>
<path d="M46 80.5417L429.5 92.2164V137.216L35.5001 144.216L46 80.5417Z" fill="white"/>
<path d="M35.5001 144.216H517.5V212.716H0L35.5001 144.216Z" fill="white"/>
<path d="M14.5001 212.716H517.5L538.5 262.716L35.5001 275.716L14.5001 212.716Z" fill="white"/>
<path d="M289.5 20.7164H414V80.5417L289.5 66.4329V20.7164Z" fill="white"/>
<path d="M50.9931 54.7497L52.8301 2.145L63.351 2.51239L61.514 55.117L50.9931 54.7497ZM65.6473 55.2614L65.97 46.018L66.3458 46.0311C69.3518 46.1361 71.3995 44.9536 72.489 42.4836C72.8677 41.6942 73.0719 40.8737 73.1016 40.022C73.1891 37.517 72.2501 35.6785 70.2846 34.5063C69.3018 33.9202 68.2093 33.6062 67.0069 33.5642L66.4057 33.5432L66.7258 24.3749L67.327 24.3959C70.1326 24.4939 72.1034 23.3589 73.2395 20.9908C73.62 20.1514 73.8259 19.2808 73.8574 18.379C73.9431 15.9241 72.9791 14.0846 70.9652 12.8606C69.9324 12.2728 68.7897 11.957 67.5372 11.9132L67.1615 11.9001L67.4843 2.65673L69.2878 2.71971C75.8008 2.94715 80.3018 5.48697 82.7909 10.3392C83.9629 12.6875 84.5008 15.2394 84.4046 17.9949C84.2524 22.3535 82.8014 25.8392 80.0516 28.4519C79.6386 28.7886 79.2515 29.1011 78.8903 29.3894C81.7208 31.6452 83.2846 34.9853 83.5815 39.4099C83.6106 40.0128 83.6156 40.5898 83.5963 41.1409C83.4266 46.0006 81.5903 49.7487 78.0873 52.3852C75.2047 54.4916 71.6592 55.4713 67.4509 55.3244L65.6473 55.2614ZM88.5679 56.0618L90.0637 13.2266L100.284 13.5835L100.119 18.3179C101.951 16.1246 104.385 14.6547 107.421 13.9079C108.483 13.6441 109.541 13.5305 110.593 13.5673L113.298 13.6617L110.617 23.6504C107.459 23.5903 104.68 24.8727 102.281 27.4976C100.56 29.3937 99.6621 31.3939 99.5886 33.4981L98.7882 56.4187L88.5679 56.0618ZM115.803 45.3505L116.491 25.6613C116.626 23.2082 117.838 20.8428 120.124 18.5651C122.928 15.8539 126.284 14.5416 130.194 14.6279L129.863 24.0968C128.41 24.046 127.386 24.6373 126.791 25.8705C126.63 26.1659 126.546 26.4388 126.537 26.6893L126.406 30.4468L137.603 30.8378L137.732 27.1555C137.746 25.3 136.476 24.3277 133.921 24.2385L134.252 14.7696C137.909 14.8974 141.072 16.2618 143.74 18.863C146.067 21.1514 147.206 23.7493 147.154 26.6569L146.658 40.8601L126.067 40.1411L125.873 45.7021C126.173 47.1673 127.247 48.0074 129.096 48.2224L128.773 57.4658C124.063 57.3013 120.398 55.2421 117.778 51.2882C116.396 49.1834 115.738 47.2042 115.803 45.3505ZM132.756 57.6049L133.076 48.4366C135.783 48.481 137.556 47.2638 138.395 44.7851L146.479 48.1523C145.615 51.3324 143.621 53.846 140.497 55.6932C138.092 57.0639 135.511 57.7011 132.756 57.6049ZM151.213 48.3176C151.112 51.2234 152.404 53.7264 155.089 55.8266C157.384 57.6122 160.21 58.5636 163.567 58.6808L163.89 49.4374C161.335 49.3482 159.928 48.6971 159.669 47.4843C159.63 47.1819 159.615 46.8804 159.626 46.5798L159.662 45.5277C159.742 44.6778 160.088 44.113 160.7 43.8334C160.955 43.6919 161.892 43.4487 163.509 43.1039C167.455 42.1381 170.119 41.2781 171.5 40.5237L171.284 46.686C171.232 48.189 170.497 49.1164 169.08 49.4682C168.726 49.5562 168.349 49.5931 167.948 49.5791L167.625 58.8225C170.733 58.8809 173.291 58.1677 175.299 56.6828C177.097 58.3507 179.524 59.238 182.58 59.3448L182.905 50.0262C181.556 49.8788 180.883 49.0527 180.885 47.548L181.57 27.9339C181.666 25.1785 180.603 22.5831 178.381 20.148C175.915 17.5037 172.803 16.1159 169.046 15.9847L168.723 25.2281C170.872 25.4536 171.94 26.469 171.927 28.2744L171.867 30.0028C171.818 31.4056 169.082 32.9152 163.658 34.5316C158.993 35.9738 156.328 36.8589 155.665 37.1869C152.948 38.8476 151.509 41.2803 151.347 44.485L151.213 48.3176ZM152.513 26.1668L161.115 29.7778C161.276 26.6233 162.509 25.0612 164.815 25.0916L165.138 15.8482C161.681 15.7275 158.606 16.8742 155.914 19.2882C153.786 21.3206 152.653 23.6135 152.513 26.1668ZM186.668 26.3062L187.007 16.6119L192.267 16.7956L192.65 5.82376L202.72 6.17542L202.337 17.1472L207.297 17.3204L206.956 27.0899L201.996 26.9167L201.3 46.8313C201.338 48.6384 202.232 49.5976 203.984 49.7089L206.163 49.785L208.056 60.2344L203.547 60.0769C196.984 59.8477 193.062 57.2279 191.782 52.2173C191.344 50.3962 191.169 48.2331 191.257 45.7282L191.928 26.4899L186.668 26.3062ZM211.942 60.9721L213.842 6.56381L223.236 6.89184L222.79 19.6673C223.804 19.3516 225.163 19.2234 226.866 19.2829L226.544 28.5263C224.79 28.4651 223.485 29.2221 222.627 30.7973C222.52 30.9942 222.464 31.1427 222.461 31.2429L221.411 61.3027L211.942 60.9721ZM230.226 28.6549L230.549 19.4115C235.408 19.5812 239.005 21.4374 241.339 24.98C242.627 26.8809 243.232 28.9586 243.153 31.2131L242.077 62.0244L232.684 61.6964L233.733 31.6366C233.758 30.9352 233.381 30.2448 232.602 29.5655C231.97 28.9917 231.178 28.6881 230.226 28.6549ZM247.615 49.9535L248.303 30.2643C248.439 27.8112 249.65 25.4457 251.936 23.168C254.74 20.4569 258.096 19.1446 262.006 19.2309L261.675 28.6998C260.222 28.649 259.198 29.2403 258.604 30.4735C258.443 30.7689 258.358 31.0418 258.349 31.2923L258.218 35.0498L269.415 35.4408L269.544 31.7585C269.558 29.903 268.288 28.9307 265.733 28.8415L266.064 19.3726C269.721 19.5003 272.884 20.8648 275.552 23.466C277.88 25.7544 279.018 28.3523 278.966 31.2599L278.47 45.4631L257.879 44.7441L257.685 50.3051C257.985 51.7703 259.059 52.6103 260.908 52.8254L260.585 62.0688C255.876 61.9043 252.211 59.8451 249.59 55.8912C248.209 53.7864 247.551 51.8072 247.615 49.9535ZM264.568 62.2079L264.888 53.0396C267.595 53.084 269.368 51.8668 270.207 49.3881L278.291 52.7552C277.428 55.9354 275.434 58.449 272.309 60.2962C269.904 61.6669 267.323 62.3041 264.568 62.2079ZM301.241 63.4885L303.12 9.68145L313.941 10.0593L312.062 63.8664L301.241 63.4885ZM320.685 15.1855C320.756 13.1314 321.737 11.6107 323.628 10.6233C324.497 10.1521 325.408 9.93307 326.36 9.96631C328.464 10.0398 330.009 11.0217 330.997 12.9122C331.418 13.7796 331.613 14.6642 331.581 15.566C331.508 17.6702 330.526 19.216 328.635 20.2033C327.768 20.6245 326.883 20.8193 325.982 20.7878C323.827 20.7126 322.257 19.7047 321.272 17.7642C320.849 16.9469 320.653 16.0873 320.685 15.1855ZM319.502 64.1262L320.919 23.5455L330.989 23.8971L329.572 64.4779L319.502 64.1262ZM335.778 35.4258L336.12 25.6563L341.38 25.84L341.482 22.9092C341.565 20.5545 342.676 18.1856 344.816 15.8024C347.527 12.8373 350.789 11.3712 354.6 11.4039L359.635 11.5798L357.042 21.1953L354.337 21.1008C352.828 21.1987 351.9 21.9187 351.552 23.2609L351.45 26.1917L356.861 26.3806L356.52 36.1501L351.109 35.9611L350.088 65.1943L340.018 64.8426L341.039 35.6095L335.778 35.4258ZM361.016 53.9135L361.703 34.2243C361.839 31.7712 363.05 29.4058 365.337 27.1281C368.14 24.417 371.497 23.1046 375.406 23.191L375.076 32.6598C373.623 32.6091 372.599 33.2003 372.004 34.4336C371.843 34.7289 371.759 35.0018 371.75 35.2523L371.619 39.0098L382.816 39.4008L382.944 35.7185C382.959 33.8631 381.689 32.8907 379.134 32.8015L379.464 23.3327C383.122 23.4604 386.284 24.8248 388.952 27.4261C391.28 29.7144 392.418 32.3124 392.367 35.2199L391.871 49.4231L371.28 48.7041L371.086 54.2652C371.386 55.7303 372.46 56.5704 374.308 56.7854L373.986 66.0288C369.276 65.8643 365.611 63.8052 362.99 59.8513C361.609 57.7464 360.951 55.7672 361.016 53.9135ZM377.969 66.1679L378.289 56.9996C380.996 57.044 382.769 55.8268 383.608 53.3481L391.692 56.7153C390.828 59.8954 388.834 62.4091 385.71 64.2562C383.305 65.6269 380.724 66.2641 377.969 66.1679Z" fill="#F12C99"/>
<path d="M74.8318 89.6415C74.7601 87.5874 75.6327 86.0019 77.4496 84.8851C78.2838 84.3544 79.1769 84.0724 80.1288 84.0391C82.233 83.9657 83.8435 84.8374 84.9603 86.6544C85.4409 87.4903 85.697 88.3592 85.7285 89.261C85.802 91.3652 84.9302 92.9757 83.1133 94.0925C82.2773 94.5731 81.4085 94.8292 80.5067 94.8607C78.3524 94.9359 76.716 94.04 75.5974 92.173C75.1185 91.3871 74.8633 90.5433 74.8318 89.6415ZM77.0663 138.545L75.6491 97.9647L85.7192 97.6131L87.1363 138.194L77.0663 138.545ZM94.05 137.952L92.961 106.765C92.8735 104.26 93.915 101.766 96.0855 99.2826C98.7413 96.3307 102.122 94.7579 106.229 94.5644L106.578 104.559C104.482 104.883 103.364 105.9 103.223 107.611L104.27 137.595L94.05 137.952ZM110.035 104.439L109.686 94.4437C114.545 94.274 118.445 96.0689 121.386 99.8287C122.962 101.88 123.783 103.833 123.847 105.687L124.936 136.874L114.716 137.231L113.669 107.246C113.611 105.593 112.651 104.673 110.789 104.487C110.537 104.446 110.285 104.43 110.035 104.439ZM127.687 103.596L127.348 93.9021L132.609 93.7184L132.226 82.7466L142.296 82.3949L142.679 93.3667L147.639 93.1935L147.98 102.963L143.02 103.136L143.716 123.051C143.879 124.851 144.838 125.745 146.593 125.734L148.772 125.658L151.389 135.95L146.88 136.107C140.317 136.337 136.223 133.997 134.596 129.088C134.032 127.301 133.707 125.156 133.619 122.651L132.947 103.413L127.687 103.596ZM154.59 124.176L153.905 104.562C153.819 102.107 154.812 99.6646 156.884 97.2347C159.49 94.2845 162.871 92.7118 167.027 92.5165L167.369 102.286C165.121 102.565 163.952 103.559 163.861 105.268L164.473 122.777C164.641 124.728 165.878 125.688 168.185 125.657L168.526 135.427C163.616 135.598 159.739 133.752 156.896 129.889C155.421 127.884 154.653 125.979 154.59 124.176ZM171.983 135.306L171.642 125.537C173.737 125.213 174.856 124.221 174.999 122.56L174.307 104.903C173.893 103.111 172.708 102.2 170.75 102.168L170.409 92.3984C175.118 92.2339 178.867 94.0091 181.656 97.724C183.13 99.7291 183.9 101.658 183.964 103.512L184.649 123.126C184.737 125.631 183.745 128.124 181.675 130.604C179.17 133.55 175.939 135.118 171.983 135.306ZM207.044 122.344L206.362 102.805C206.329 100.449 207.274 98.0583 209.196 95.6336C211.601 92.6905 214.657 91.1291 218.362 90.9495L220.842 90.8629L221.181 100.557L218.701 100.644C217.253 100.845 216.401 101.577 216.144 102.84L216.808 121.853C216.827 122.404 217.196 122.918 217.915 123.394C218.427 123.677 219.008 123.807 219.659 123.785L221.989 123.703L222.33 133.473L220.001 133.554C215.442 133.713 211.814 131.808 209.117 127.84C207.794 125.879 207.103 124.048 207.044 122.344ZM226.313 133.334L224.434 79.5266L234.88 79.1618L236.684 132.971L226.313 133.334ZM242.289 121.113L241.601 101.424C241.566 98.9676 242.609 96.5234 244.731 94.0917C247.339 91.1917 250.595 89.6484 254.501 89.4618L254.832 98.9307C253.379 98.9814 252.399 99.6426 251.892 100.914C251.752 101.22 251.686 101.498 251.695 101.749L251.826 105.506L263.024 105.115L262.895 101.433C262.78 99.5811 261.445 98.6997 258.89 98.7889L258.559 89.3201C262.217 89.1924 265.467 90.3329 268.31 92.7417C270.792 94.8621 272.108 97.3743 272.26 100.278L272.756 114.482L252.165 115.201L252.359 120.762C252.76 122.202 253.891 122.965 255.75 123.051L256.072 132.294C251.363 132.459 247.563 130.66 244.673 126.899C243.148 124.896 242.354 122.967 242.289 121.113ZM260.055 132.155L259.735 122.987C262.439 122.843 264.123 121.505 264.787 118.973L273.086 121.768C272.446 125.001 270.632 127.648 267.644 129.708C265.341 131.243 262.811 132.059 260.055 132.155ZM277.397 120.264L286.655 118.21C286.713 119.863 287.606 121.011 289.334 121.653C289.942 121.832 290.497 121.938 291 121.971L291.331 131.439C285.519 131.642 281.414 129.729 279.016 125.7C278.005 124.029 277.465 122.217 277.397 120.264ZM277.155 100.408C276.992 95.7491 279.051 92.2161 283.331 89.8094C285.445 88.5819 287.554 87.9314 289.658 87.8579L289.984 97.1764C287.531 97.3123 286.335 98.282 286.398 100.086C286.465 101.989 288.828 103.587 293.488 104.879C295.211 105.371 297.233 105.827 299.555 106.247C303.035 106.778 305.557 108.621 307.122 111.777C307.931 113.404 308.371 115.219 308.441 117.223C308.623 122.434 306.702 126.338 302.68 128.936C300.374 130.421 297.718 131.216 294.712 131.321L294.382 121.852C296.135 121.791 297.418 121.17 298.229 119.988C298.611 119.422 298.79 118.814 298.767 118.163C298.713 116.61 296.762 115.324 292.914 114.304C292.308 114.175 291.372 113.957 290.107 113.65C287.428 113.041 285.579 112.529 284.561 112.113C280.839 110.387 278.539 107.734 277.662 104.153C277.37 102.959 277.201 101.711 277.155 100.408ZM293.365 97.0584L293.115 87.7372C297.624 87.5797 301.314 89.1062 304.185 92.3165C306.014 94.4096 306.97 96.6585 307.054 99.0633L297.866 100.964C297.787 98.7097 296.538 97.4241 294.119 97.1073C293.817 97.0677 293.566 97.0514 293.365 97.0584ZM312.455 81.3435C312.383 79.2894 313.255 77.704 315.072 76.5871C315.907 76.0564 316.8 75.7744 317.752 75.7412C319.856 75.6677 321.466 76.5394 322.583 78.3564C323.064 79.1923 323.32 80.0612 323.351 80.963C323.425 83.0672 322.553 84.6777 320.736 85.7945C319.9 86.2752 319.031 86.5312 318.129 86.5627C315.975 86.6379 314.339 85.742 313.22 83.875C312.741 83.0891 312.486 82.2453 312.455 81.3435ZM314.689 130.247L313.272 89.6667L323.342 89.3151L324.759 129.896L314.689 130.247ZM330.819 143.98L332.826 134.655L347.705 134.136C349.307 134.03 350.308 133.267 350.71 131.849C350.757 131.747 350.779 131.671 350.777 131.621L350.654 128.089C349.609 128.326 348.485 128.465 347.283 128.507L346.957 119.189C349.108 119.013 350.207 118.147 350.253 116.591L349.583 97.4277C349.559 96.7263 349.086 96.1158 348.165 95.5962C347.552 95.2664 346.869 95.1147 346.118 95.141L345.79 85.7473C346.992 85.7053 348.125 85.8162 349.187 86.0801L349.171 85.6292L358.791 85.2933L360.397 131.285C360.474 133.489 359.576 135.803 357.705 138.226C355.21 141.473 352.034 143.189 348.178 143.374L330.819 143.98ZM330.646 117.501L329.956 97.7368C329.922 95.3303 330.917 92.938 332.941 90.5599C335.446 87.6133 338.652 86.0467 342.558 85.8601L342.886 95.2538C341.083 95.3168 339.953 96.0083 339.498 97.3284C339.453 97.4805 339.431 97.5815 339.433 97.6316L340.113 117.095C340.153 118.248 340.905 118.949 342.368 119.199C342.772 119.285 343.225 119.319 343.726 119.302L344.051 128.62C339.342 128.785 335.616 126.933 332.872 123.067C331.45 121.11 330.708 119.255 330.646 117.501ZM365.941 128.458L364.852 97.2707C364.764 94.7657 365.806 92.2714 367.976 89.7879C370.632 86.836 374.013 85.2633 378.12 85.0697L378.469 95.0646C376.373 95.3886 375.255 96.4058 375.114 98.1162L376.161 128.101L365.941 128.458ZM381.926 94.9439L381.577 84.949C386.436 84.7793 390.336 86.5743 393.277 90.334C394.853 92.3857 395.674 94.3384 395.738 96.1921L396.827 127.379L386.607 127.736L385.56 97.7514C385.502 96.0981 384.542 95.1786 382.68 94.9928C382.427 94.9515 382.176 94.9352 381.926 94.9439Z" fill="#F12C99"/>
<path d="M21.8202 148.389L33.4004 191.681L39.1118 191.881L42.8557 181.628L33.0175 148.781L21.8202 148.389ZM39.3463 159.31L44.1466 174.826L45.1235 174.86L47.7156 167.427L54.4423 192.416L60.1536 192.616L63.8975 182.363L54.0594 149.515L42.8621 149.124L39.3463 159.31ZM60.3882 160.044L65.1884 175.561L66.1654 175.595L75.1012 150.25L63.904 149.859L60.3882 160.044ZM79.5973 144.313C79.6691 142.258 80.6501 140.738 82.5406 139.75C83.4098 139.279 84.3203 139.06 85.2722 139.093C87.3764 139.167 88.9221 140.149 89.9095 142.039C90.3307 142.907 90.5255 143.791 90.494 144.693C90.4205 146.797 89.4386 148.343 87.5481 149.33C86.6807 149.752 85.7961 149.946 84.8943 149.915C82.74 149.84 81.1701 148.832 80.1844 146.891C79.7615 146.074 79.5658 145.214 79.5973 144.313ZM78.415 193.253L79.8321 152.673L89.9021 153.024L88.485 193.605L78.415 193.253ZM94.7525 160.642L95.091 150.948L100.351 151.132L100.735 140.16L110.805 140.512L110.422 151.484L115.381 151.657L115.04 161.426L110.08 161.253L109.385 181.168C109.422 182.975 110.317 183.934 112.068 184.045L114.248 184.121L116.14 194.571L111.631 194.413C105.068 194.184 101.147 191.564 99.8669 186.554C99.4289 184.732 99.2536 182.569 99.3411 180.064L100.013 160.826L94.7525 160.642ZM120.027 195.308L121.927 140.9L131.32 141.228L130.874 154.004C131.889 153.688 133.247 153.56 134.951 153.619L134.628 162.863C132.875 162.801 131.569 163.558 130.711 165.134C130.604 165.33 130.549 165.479 130.545 165.579L129.496 195.639L120.027 195.308ZM138.31 162.991L138.633 153.748C143.493 153.917 147.09 155.774 149.424 159.316C150.712 161.217 151.316 163.295 151.238 165.549L150.162 196.361L140.768 196.033L141.818 165.973C141.842 165.271 141.465 164.581 140.686 163.902C140.054 163.328 139.262 163.024 138.31 162.991ZM171.947 186.588C171.845 189.493 173.137 191.996 175.823 194.097C178.118 195.882 180.944 196.834 184.301 196.951L184.623 187.707C182.068 187.618 180.661 186.967 180.403 185.754C180.363 185.452 180.349 185.151 180.359 184.85L180.396 183.798C180.476 182.948 180.822 182.383 181.433 182.103C181.689 181.962 182.625 181.719 184.243 181.374C188.189 180.408 190.852 179.548 192.233 178.794L192.018 184.956C191.965 186.459 191.231 187.386 189.814 187.738C189.46 187.826 189.082 187.863 188.681 187.849L188.359 197.093C191.467 197.151 194.025 196.438 196.033 194.953C197.83 196.621 200.257 197.508 203.313 197.615L203.639 188.296C202.29 188.149 201.616 187.323 201.619 185.818L202.304 166.204C202.4 163.449 201.337 160.853 199.114 158.418C196.649 155.774 193.537 154.386 189.779 154.255L189.457 163.498C191.606 163.724 192.674 164.739 192.661 166.544L192.6 168.273C192.551 169.676 189.815 171.185 184.392 172.802C179.726 174.244 177.062 175.129 176.398 175.457C173.682 177.118 172.243 179.55 172.081 182.755L171.947 186.588ZM173.247 164.437L181.849 168.048C182.009 164.893 183.242 163.331 185.549 163.362L185.872 154.118C182.415 153.998 179.34 155.144 176.647 157.558C174.52 159.591 173.386 161.884 173.247 164.437ZM224.373 187.064L233.752 185.661C233.694 187.314 234.505 188.521 236.184 189.282C236.778 189.504 237.325 189.648 237.824 189.716L237.493 199.185C231.682 198.982 227.72 196.787 225.609 192.6C224.717 190.863 224.305 189.018 224.373 187.064ZM225.517 167.24C225.68 162.581 227.98 159.2 232.417 157.098C234.612 156.021 236.761 155.519 238.865 155.593L238.54 164.911C236.083 164.876 234.823 165.76 234.76 167.563C234.694 169.467 236.94 171.226 241.498 172.84C243.182 173.45 245.168 174.046 247.455 174.628C250.889 175.4 253.277 177.414 254.618 180.671C255.311 182.351 255.623 184.193 255.553 186.197C255.371 191.407 253.183 195.168 248.99 197.479C246.586 198.8 243.881 199.408 240.875 199.303L241.206 189.834C242.959 189.895 244.282 189.364 245.174 188.242C245.594 187.705 245.815 187.111 245.838 186.459C245.892 184.906 244.036 183.487 240.268 182.202C239.672 182.03 238.754 181.748 237.514 181.353C234.883 180.559 233.075 179.919 232.089 179.433C228.496 177.452 226.387 174.644 225.761 171.011C225.553 169.8 225.471 168.543 225.517 167.24ZM241.921 165.029L242.322 155.713C246.831 155.871 250.405 157.651 253.045 161.054C254.724 163.269 255.521 165.579 255.437 167.984L246.138 169.24C246.217 166.985 245.061 165.615 242.67 165.131C242.371 165.07 242.122 165.036 241.921 165.029ZM259.857 187.927L260.544 168.238C260.68 165.785 261.891 163.419 264.178 161.142C266.981 158.43 270.338 157.118 274.247 157.204L273.917 166.673C272.464 166.623 271.44 167.214 270.845 168.447C270.684 168.742 270.6 169.015 270.591 169.266L270.46 173.023L281.657 173.414L281.786 169.732C281.8 167.877 280.53 166.904 277.975 166.815L278.306 157.346C281.963 157.474 285.125 158.838 287.793 161.44C290.121 163.728 291.259 166.326 291.208 169.233L290.712 183.437L270.121 182.718L269.927 188.279C270.227 189.744 271.301 190.584 273.15 190.799L272.827 200.042C268.117 199.878 264.452 197.819 261.832 193.865C260.45 191.76 259.792 189.781 259.857 187.927ZM276.81 200.181L277.13 191.013C279.837 191.058 281.61 189.84 282.449 187.362L290.533 190.729C289.669 193.909 287.675 196.423 284.551 198.27C282.146 199.64 279.565 200.278 276.81 200.181ZM308.974 201.305C304.264 201.14 300.677 199.008 298.212 194.909C296.979 192.86 296.393 190.958 296.455 189.205L297.137 169.666C297.218 167.362 298.302 165.042 300.39 162.707C303.1 159.792 306.46 158.379 310.47 158.469L313.025 158.559L312.683 168.328L310.128 168.239C308.421 168.279 307.371 168.92 306.976 170.16L306.305 189.398C306.284 190 306.666 190.54 307.452 191.019C307.992 191.338 308.613 191.511 309.315 191.535L311.87 191.624L311.529 201.394L308.974 201.305ZM314.764 216.48L316.782 158.69L327.378 159.06L325.36 216.85L314.764 216.48ZM332.065 190.75L333.165 159.262L343.385 159.619L342.327 189.904C342.361 191.811 343.479 192.828 345.682 192.956L345.333 202.95C340.423 202.779 336.658 200.716 334.037 196.762C332.656 194.658 331.999 192.653 332.065 190.75ZM348.79 203.071L349.139 193.076C351.302 192.901 352.513 191.965 352.773 190.269L353.831 159.984L364.051 160.34L362.952 191.828C362.869 194.183 361.684 196.524 359.396 198.852C356.485 201.76 352.95 203.166 348.79 203.071ZM368.673 191.727L369.361 172.038C369.497 169.585 370.708 167.219 372.995 164.942C375.798 162.23 379.154 160.918 383.064 161.004L382.733 170.473C381.28 170.422 380.257 171.014 379.662 172.247C379.501 172.542 379.416 172.815 379.407 173.066L379.276 176.823L390.473 177.214L390.602 173.532C390.617 171.677 389.346 170.704 386.791 170.615L387.122 161.146C390.779 161.274 393.942 162.638 396.61 165.239C398.938 167.528 400.076 170.126 400.025 173.033L399.529 187.237L378.938 186.518L378.743 192.079C379.043 193.544 380.118 194.384 381.966 194.599L381.643 203.842C376.934 203.678 373.269 201.619 370.648 197.665C369.267 195.56 368.609 193.581 368.673 191.727ZM385.626 203.981L385.946 194.813C388.653 194.857 390.427 193.64 391.265 191.162L399.349 194.529C398.486 197.709 396.492 200.222 393.368 202.07C390.962 203.44 388.382 204.078 385.626 203.981ZM404.714 204.648L405.803 173.461C405.891 170.956 407.104 168.54 409.442 166.214C412.297 163.455 415.78 162.122 419.89 162.215L419.541 172.21C417.428 172.387 416.241 173.324 415.982 175.02L414.934 205.005L404.714 204.648ZM422.998 172.331L423.347 162.336C428.206 162.506 431.972 164.568 434.642 168.524C436.072 170.681 436.754 172.686 436.69 174.539L435.601 205.726L425.38 205.37L426.427 175.385C426.485 173.732 425.591 172.747 423.747 172.432C423.498 172.373 423.248 172.339 422.998 172.331ZM441.719 194.278L442.406 174.589C442.547 171.985 443.735 169.569 445.97 167.339C448.671 164.675 452.051 163.413 456.109 163.555L455.773 173.174C453.664 173.251 452.488 173.887 452.246 175.083L451.563 194.622C451.521 195.824 452.374 196.531 454.123 196.742C454.422 196.803 454.721 196.839 455.022 196.849L454.689 206.393C449.378 206.208 445.543 203.992 443.183 199.746C442.146 197.854 441.657 196.031 441.719 194.278ZM459.228 173.37L459.566 163.676C463.524 163.814 466.677 165.454 469.025 168.596C470.703 170.811 471.495 173.272 471.401 175.977L462.109 179.189L462.196 176.709C462.169 174.602 461.18 173.489 459.228 173.37ZM458.068 206.586L458.406 196.892C460.56 196.967 461.833 196.435 462.224 195.295C462.39 194.849 462.484 194.326 462.505 193.725L462.591 191.245L471.636 195.097C471.567 198.505 469.91 201.432 466.665 203.877C463.986 205.89 461.12 206.793 458.068 206.586ZM475.987 195.474L476.674 175.785C476.81 173.332 478.021 170.967 480.308 168.689C483.111 165.978 486.468 164.666 490.377 164.752L490.047 174.221C488.594 174.17 487.57 174.761 486.975 175.994C486.814 176.29 486.73 176.563 486.721 176.813L486.59 180.571L497.787 180.962L497.916 177.279C497.93 175.424 496.66 174.452 494.105 174.362L494.435 164.894C498.093 165.021 501.255 166.386 503.923 168.987C506.251 171.275 507.389 173.873 507.338 176.781L506.842 190.984L486.251 190.265L486.057 195.826C486.357 197.291 487.431 198.131 489.28 198.346L488.957 207.59C484.247 207.425 480.582 205.366 477.962 201.412C476.58 199.307 475.922 197.328 475.987 195.474ZM492.94 207.729L493.26 198.561C495.967 198.605 497.74 197.388 498.579 194.909L506.663 198.276C505.799 201.456 503.805 203.97 500.681 205.817C498.276 207.188 495.695 207.825 492.94 207.729Z" fill="#F12C99"/>
<path d="M67.6977 259.963L67.0128 240.349C66.927 237.894 67.9202 235.452 69.9923 233.022C72.5979 230.072 75.979 228.499 80.1355 228.304L80.4767 238.073C78.2292 238.352 77.0601 239.346 76.9692 241.055L77.5807 258.565C77.7491 260.515 78.9865 261.475 81.2929 261.445L81.634 271.214C76.7242 271.385 72.8476 269.539 70.004 265.676C68.5294 263.671 67.7607 261.767 67.6977 259.963ZM85.0909 271.093L84.7497 261.324C86.8452 261 87.9642 260.008 88.1069 258.347L87.415 240.69C87.0013 238.899 85.8158 237.987 83.8584 237.955L83.5173 228.186C88.2266 228.021 91.9754 229.796 94.7637 233.511C96.2382 235.516 97.0078 237.446 97.0726 239.299L97.7575 258.913C97.845 261.418 96.8536 263.911 94.7833 266.391C92.2778 269.337 89.047 270.905 85.0909 271.093ZM101.126 241.189L100.785 231.42L106.046 231.236L105.943 228.305C105.861 225.951 106.804 223.51 108.773 220.983C111.271 217.836 114.422 216.146 118.226 215.913L123.261 215.737L121.345 225.51L118.64 225.605C117.142 225.807 116.267 226.59 116.013 227.954L116.116 230.884L121.526 230.696L121.868 240.465L116.457 240.654L117.478 269.887L107.408 270.239L106.387 241.006L101.126 241.189ZM144.876 257.268L144.189 237.579C144.148 234.972 145.164 232.478 147.238 230.099C149.747 227.252 153.031 225.758 157.089 225.616L157.425 235.235C155.326 235.459 154.197 236.176 154.039 237.385L154.721 256.924C154.763 258.127 155.663 258.772 157.422 258.861C157.724 258.901 158.026 258.915 158.326 258.905L158.66 268.449C153.349 268.634 149.369 266.692 146.718 262.621C145.552 260.806 144.937 259.021 144.876 257.268ZM160.884 235.19L160.546 225.496C164.503 225.357 167.763 226.774 170.325 229.744C172.153 231.837 173.115 234.236 173.21 236.942L164.165 240.794L164.078 238.314C163.904 236.213 162.84 235.172 160.884 235.19ZM162.044 268.406L161.705 258.712C163.86 258.636 165.092 258.017 165.403 256.852C165.537 256.396 165.594 255.867 165.573 255.266L165.486 252.786L174.778 255.998C174.947 259.403 173.498 262.438 170.431 265.103C167.899 267.299 165.104 268.399 162.044 268.406ZM179.873 268.31L177.973 213.902L187.366 213.574L187.813 226.349C188.802 225.964 190.149 225.741 191.852 225.681L192.175 234.925C190.422 234.986 189.172 235.832 188.426 237.463C188.333 237.667 188.288 237.819 188.292 237.92L189.342 267.979L179.873 268.31ZM195.857 234.796L195.535 225.553C200.394 225.383 204.112 226.984 206.688 230.355C208.105 232.162 208.853 234.192 208.932 236.446L210.008 267.258L200.614 267.586L199.564 237.526C199.54 236.825 199.115 236.162 198.291 235.539C197.621 235.011 196.809 234.763 195.857 234.796ZM213.774 256.593C213.875 259.498 215.338 261.905 218.164 263.813C220.578 265.434 223.464 266.186 226.82 266.069L226.497 256.825C223.942 256.915 222.494 256.363 222.151 255.171C222.09 254.872 222.055 254.573 222.044 254.272L222.008 253.22C222.028 252.367 222.333 251.779 222.924 251.458C223.169 251.298 224.087 250.991 225.676 250.534C229.545 249.295 232.142 248.251 233.467 247.403L233.682 253.565C233.734 255.068 233.066 256.044 231.678 256.494C231.33 256.606 230.956 256.67 230.556 256.684L230.878 265.927C233.983 265.768 236.485 264.879 238.384 263.257C240.294 264.796 242.777 265.512 245.833 265.405L245.508 256.086C244.151 256.033 243.422 255.256 243.319 253.755L242.635 234.141C242.538 231.385 241.297 228.871 238.91 226.596C236.266 224.131 233.065 222.963 229.307 223.094L229.63 232.338C231.79 232.413 232.926 233.351 233.039 235.153L233.099 236.882C233.148 238.284 230.524 239.981 225.226 241.972C220.673 243.736 218.077 244.805 217.438 245.178C214.844 247.025 213.578 249.552 213.64 252.76L213.774 256.593ZM213.525 234.405L222.358 237.407C222.298 234.249 223.419 232.605 225.722 232.474L225.4 223.231C221.943 223.352 218.955 224.71 216.438 227.306C214.457 229.482 213.486 231.848 213.525 234.405ZM250.868 265.229L249.372 222.394L259.593 222.037L259.758 226.771C261.433 224.456 263.758 222.819 266.734 221.863C267.776 221.525 268.823 221.338 269.875 221.302L272.58 221.207L270.602 231.358C267.448 231.519 264.765 232.992 262.555 235.778C260.97 237.789 260.215 239.847 260.288 241.951L261.088 264.872L250.868 265.229ZM276.373 254.406C276.475 257.312 277.938 259.719 280.764 261.627C283.178 263.248 286.063 264 289.42 263.883L289.097 254.639C286.542 254.729 285.093 254.177 284.75 252.985C284.69 252.686 284.654 252.387 284.644 252.086L284.607 251.034C284.627 250.181 284.933 249.593 285.524 249.272C285.769 249.112 286.686 248.805 288.275 248.348C292.145 247.109 294.742 246.065 296.066 245.217L296.282 251.379C296.334 252.882 295.666 253.858 294.277 254.308C293.93 254.42 293.556 254.484 293.155 254.498L293.478 263.741C296.582 263.582 299.084 262.692 300.984 261.071C302.894 262.61 305.377 263.325 308.433 263.219L308.107 253.9C306.751 253.847 306.022 253.07 305.919 251.569L305.234 231.955C305.138 229.199 303.896 226.685 301.51 224.41C298.865 221.945 295.664 220.777 291.907 220.908L292.23 230.152C294.389 230.227 295.525 231.165 295.639 232.967L295.699 234.696C295.748 236.098 293.124 237.795 287.826 239.786C283.273 241.55 280.677 242.619 280.038 242.992C277.443 244.839 276.177 247.366 276.239 250.574L276.373 254.406ZM276.125 232.219L284.958 235.221C284.898 232.063 286.019 230.419 288.322 230.288L287.999 221.045C284.542 221.166 281.555 222.524 279.037 225.12C277.057 227.296 276.086 229.662 276.125 232.219ZM312.76 251.405L312.073 231.716C312.032 229.109 313.048 226.616 315.122 224.236C317.631 221.39 320.915 219.895 324.973 219.754L325.309 229.373C323.21 229.597 322.081 230.313 321.923 231.523L322.605 251.061C322.647 252.264 323.547 252.91 325.306 252.999C325.608 253.038 325.91 253.053 326.21 253.042L326.544 262.586C321.233 262.772 317.253 260.829 314.602 256.758C313.436 254.943 312.821 253.159 312.76 251.405ZM328.768 229.327L328.43 219.633C332.387 219.495 335.647 220.911 338.209 223.881C340.037 225.974 340.999 228.373 341.094 231.079L332.049 234.931L331.962 232.451C331.788 230.35 330.724 229.309 328.768 229.327ZM329.928 262.543L329.589 252.849C331.744 252.774 332.976 252.154 333.287 250.989C333.421 250.533 333.478 250.005 333.457 249.403L333.37 246.923L342.662 250.135C342.831 253.54 341.382 256.576 338.315 259.241C335.783 261.436 332.988 262.537 329.928 262.543ZM344.474 228.779L344.136 219.085L349.396 218.901L349.013 207.929L359.083 207.577L359.466 218.549L364.426 218.376L364.767 228.145L359.807 228.319L360.503 248.233C360.666 250.033 361.625 250.928 363.38 250.917L365.56 250.841L368.176 261.132L363.667 261.29C357.104 261.519 353.01 259.179 351.384 254.27C350.82 252.484 350.494 250.338 350.407 247.833L349.735 228.595L344.474 228.779ZM371.377 249.358L370.689 229.669C370.654 227.213 371.697 224.768 373.819 222.337C376.427 219.437 379.683 217.893 383.589 217.707L383.92 227.176C382.467 227.226 381.487 227.888 380.98 229.159C380.84 229.465 380.774 229.743 380.783 229.994L380.914 233.751L392.111 233.36L391.983 229.678C391.868 227.826 390.533 226.945 387.978 227.034L387.647 217.565C391.305 217.437 394.555 218.578 397.398 220.987C399.879 223.107 401.196 225.619 401.348 228.523L401.844 242.727L381.253 243.446L381.447 249.007C381.848 250.447 382.979 251.21 384.837 251.296L385.16 260.539C380.451 260.704 376.651 258.905 373.761 255.144C372.236 253.141 371.442 251.212 371.377 249.358ZM389.143 260.4L388.823 251.232C391.527 251.087 393.21 249.75 393.874 247.218L402.173 250.013C401.534 253.246 399.72 255.893 396.732 257.953C394.428 259.488 391.899 260.304 389.143 260.4ZM408.532 259.723L407.036 216.888L417.256 216.531L417.422 221.266C419.096 218.95 421.422 217.314 424.398 216.357C425.44 216.02 426.486 215.833 427.539 215.796L430.244 215.701L428.266 225.853C425.111 226.013 422.429 227.486 420.219 230.272C418.634 232.284 417.878 234.342 417.952 236.446L418.752 259.366L408.532 259.723ZM433.614 247.561L442.872 245.507C442.93 247.161 443.823 248.308 445.55 248.95C446.159 249.13 446.714 249.236 447.217 249.268L447.547 258.737C441.736 258.94 437.631 257.027 435.233 252.997C434.222 251.327 433.682 249.515 433.614 247.561ZM433.372 227.706C433.209 223.047 435.268 219.514 439.548 217.107C441.662 215.879 443.771 215.229 445.875 215.156L446.2 224.474C443.747 224.61 442.552 225.58 442.615 227.383C442.682 229.287 445.045 230.885 449.705 232.177C451.427 232.668 453.45 233.124 455.772 233.545C459.252 234.076 461.774 235.919 463.339 239.074C464.148 240.701 464.587 242.517 464.657 244.521C464.839 249.731 462.919 253.636 458.897 256.234C456.591 257.719 453.935 258.514 450.929 258.619L450.599 249.15C452.352 249.089 453.634 248.467 454.446 247.285C454.827 246.72 455.007 246.112 454.984 245.461C454.93 243.907 452.979 242.621 449.131 241.602C448.525 241.473 447.589 241.254 446.324 240.948C443.645 240.339 441.796 239.827 440.778 239.411C437.056 237.685 434.756 235.031 433.879 231.45C433.586 230.257 433.417 229.009 433.372 227.706ZM449.582 224.356L449.332 215.035C453.841 214.877 457.531 216.404 460.402 219.614C462.231 221.707 463.187 223.956 463.271 226.361L454.083 228.262C454.004 226.007 452.755 224.722 450.336 224.405C450.034 224.365 449.783 224.349 449.582 224.356Z" fill="#F12C99"/>
</svg>
