<svg width="30" height="30" viewBox="0 0 30 30" fill="none" xmlns="http://www.w3.org/2000/svg">
<path d="M29.9999 14.7846C29.9999 18.7588 29.3339 21.9824 28.512 21.9824C27.6902 21.9824 27.0244 18.7596 27.0244 14.7846C27.0244 10.8096 27.6905 7.58679 28.512 7.58679C29.3336 7.58679 29.9999 10.8093 29.9999 14.7846Z" fill="#24110B"/>
<path d="M26.2037 14.7847C26.2037 19.2213 24.3097 22.8194 21.9732 22.8194C19.6367 22.8194 17.7427 19.2213 17.7427 14.7847C17.7427 10.348 19.6365 6.75 21.9729 6.75C24.3094 6.75 26.2034 10.3469 26.2034 14.7847" fill="#24110B"/>
<path d="M16.9218 14.7846C16.9218 19.498 13.1337 23.319 8.46105 23.319C3.78841 23.319 0 19.4972 0 14.7846C0 10.0721 3.78812 6.25 8.46105 6.25C13.134 6.25 16.9218 10.0712 16.9218 14.7846Z" fill="#24110B"/>
</svg>
