<svg width="18" height="18" viewBox="0 0 18 18" fill="none" xmlns="http://www.w3.org/2000/svg">
<path d="M17.3345 8.88331C17.3357 9.34464 17.2025 9.79639 16.9512 10.1833C16.7074 10.5741 16.3537 10.8842 15.9345 11.075L4.14286 16.7916C3.81448 16.9566 3.45199 17.0422 3.08452 17.0416C2.93037 17.0419 2.77666 17.0251 2.62619 16.9916C2.1114 16.895 1.64281 16.6314 1.29285 16.2416C0.940374 15.8523 0.723807 15.3591 0.675715 14.8361C0.627632 14.3131 0.750624 13.7887 1.02619 13.3416L3.89286 9.35831C3.95908 9.19997 3.99307 9.02997 3.99285 8.85831C3.99317 8.67322 3.95037 8.49064 3.86786 8.32497L1.21785 4.57497C0.94404 4.11957 0.82969 3.58592 0.892849 3.0583C0.949807 2.55167 1.16607 2.07618 1.5105 1.7003C1.85494 1.32442 2.30977 1.06753 2.80952 0.96664C3.31207 0.868099 3.83277 0.926274 4.30118 1.13331L15.9679 6.69163C16.3778 6.89264 16.7231 7.20457 16.9647 7.59197C17.2063 7.97939 17.3344 8.42672 17.3345 8.88331Z" fill="#D5FF40"/>
</svg>
