<?xml version="1.0" encoding="UTF-8" standalone="no"?>
<!-- Created with Inkscape (http://www.inkscape.org/) -->

<svg
   width="300"
   height="300"
   viewBox="0 0 79.375 79.375"
   version="1.1"
   id="svg5"
   inkscape:version="1.1 (c4e8f9e, 2021-05-24)"
   sodipodi:docname="tom_logo.svg"
   xmlns:inkscape="http://www.inkscape.org/namespaces/inkscape"
   xmlns:sodipodi="http://sodipodi.sourceforge.net/DTD/sodipodi-0.dtd"
   xmlns:xlink="http://www.w3.org/1999/xlink"
   xmlns="http://www.w3.org/2000/svg"
   xmlns:svg="http://www.w3.org/2000/svg">
  <sodipodi:namedview
     id="namedview7"
     pagecolor="#ffffff"
     bordercolor="#666666"
     borderopacity="1.0"
     inkscape:pageshadow="2"
     inkscape:pageopacity="0.0"
     inkscape:pagecheckerboard="0"
     inkscape:document-units="px"
     showgrid="false"
     inkscape:snap-intersection-paths="true"
     inkscape:zoom="1.4694528"
     inkscape:cx="238.86443"
     inkscape:cy="137.8064"
     inkscape:window-width="1237"
     inkscape:window-height="747"
     inkscape:window-x="0"
     inkscape:window-y="25"
     inkscape:window-maximized="0"
     inkscape:current-layer="layer1" />
  <defs
     id="defs2">
    <marker
       style="overflow:visible"
       id="Arrow1Lstart"
       refX="0.0"
       refY="0.0"
       orient="auto"
       inkscape:stockid="Arrow1Lstart"
       inkscape:isstock="true">
      <path
         transform="scale(0.8) translate(12.5,0)"
         style="fill-rule:evenodd;fill:context-stroke;stroke:context-stroke;stroke-width:1.0pt"
         d="M 0.0,0.0 L 5.0,-5.0 L -12.5,0.0 L 5.0,5.0 L 0.0,0.0 z "
         id="path9391" />
    </marker>
    <linearGradient
       id="linearGradient9208"
       inkscape:swatch="solid">
      <stop
         style="stop-color:#000000;stop-opacity:1;"
         offset="0"
         id="stop9206" />
    </linearGradient>
    <linearGradient
       id="linearGradient9202"
       inkscape:swatch="solid">
      <stop
         style="stop-color:#000000;stop-opacity:0.06477733;"
         offset="0"
         id="stop9200" />
    </linearGradient>
    <linearGradient
       inkscape:collect="always"
       xlink:href="#linearGradient9202"
       id="linearGradient9204"
       x1="7.3822823"
       y1="40.422501"
       x2="72.202335"
       y2="40.422501"
       gradientUnits="userSpaceOnUse" />
    <linearGradient
       inkscape:collect="always"
       xlink:href="#linearGradient9208"
       id="linearGradient9210"
       x1="7.3822823"
       y1="40.422501"
       x2="72.202332"
       y2="40.422501"
       gradientUnits="userSpaceOnUse" />
  </defs>
  <g
     inkscape:label="Layer 1"
     inkscape:groupmode="layer"
     id="layer1">
    <ellipse
       id="path8157"
       cx="39.792309"
       cy="40.422501"
       rx="32.410027"
       ry="33.580387"
       style="stroke-width:1.85208333;fill-opacity:1;fill:url(#linearGradient9204);stroke:url(#linearGradient9210);stroke-miterlimit:4;stroke-dasharray:none;stroke-linejoin:round;marker-start:" />
    <path
       style="fill:#000000;stroke-width:1.85208;stroke-linejoin:round;stroke-miterlimit:4;stroke-dasharray:none"
       id="path11434-8"
       d="m 15.985001,51.4345 c -0.325393,0.212151 -0.650783,0.424301 -0.976172,0.636452 0,0 2.557018,-2.053484 2.557018,-2.053484 v 0 c -1.627447,0.894935 -3.254894,1.789872 -4.882338,2.684809 0,0 3.301492,-1.267777 3.301492,-1.267777 z" />
    <path
       style="fill:#000000;stroke-width:1.85208;stroke-linejoin:round;stroke-miterlimit:4;stroke-dasharray:none"
       id="path11432-7"
       d="m 15.566099,48.04765 c -0.729422,0.425712 -1.458844,0.851421 -2.188263,1.277133 0,0 2.808724,-2.265831 2.808724,-2.265831 v 0 c -1.428144,0.811982 -2.856288,1.623965 -4.284432,2.435947 0,0 3.663971,-1.447249 3.663971,-1.447249 z" />
    <circle
       style="stroke-width:1.95861;stroke-linejoin:round;stroke-miterlimit:4;stroke-dasharray:none;fill:#ff0000"
       id="path10430"
       cx="39.678829"
       cy="41.479389"
       r="9.7895832" />
    <path
       style="stroke-width:1.85208;stroke-linejoin:round;stroke-miterlimit:4;stroke-dasharray:none"
       id="path10545"
       d="m 27.055122,14.231505 c 0.0997,1.500081 0.181157,3.001338 0.239757,4.50365 0.127776,2.723937 0.09472,5.451535 0.114938,8.177513 0.05843,3.464393 0.05538,6.929344 0.07371,10.394082 0.01532,4.528423 0.161565,9.055303 0.255693,13.58257 0.11194,4.417393 -0.251425,8.820565 -0.636193,13.215583 -0.159295,1.611323 -0.35016,3.219381 -0.556088,4.825336 0,0 3.278225,-1.626301 3.278225,-1.626301 v 0 c 0.138035,-1.59411 0.331697,-3.183028 0.429347,-4.780452 0.151884,-4.346126 0.242414,-8.694661 0.245372,-13.043567 0.02143,-4.569592 0.0013,-9.138716 -0.0035,-13.70824 0.01908,-3.488967 0.01905,-6.978065 0.06699,-10.466816 0.0064,-2.74455 -0.04486,-5.488724 -0.02347,-8.233291 -0.01696,-1.541768 -0.08375,-3.087817 0.02283,-4.627266 0,0 -3.507576,1.787199 -3.507576,1.787199 z" />
    <path
       style="stroke-width:1.85208;stroke-linejoin:round;stroke-miterlimit:4;stroke-dasharray:none"
       id="path10551"
       d="m 34.681175,17.870386 c 0.408705,1.789869 0.45847,3.637256 0.566717,5.463013 0.186491,2.630073 0.216672,5.265215 0.204139,7.900502 0.0028,0.363093 7.94e-4,0.726254 0.0084,1.089276 0.03973,1.883362 0.16383,3.762491 0.196101,5.646534 0.04678,2.73136 0.01683,3.498627 -0.0155,6.296829 -0.129868,5.541796 -0.511749,11.073058 -0.827185,16.606237 -0.137782,2.854891 -0.231278,5.709123 -0.610026,8.544456 -0.05181,0.266065 -0.103627,0.53213 -0.15544,0.798195 0,0 3.356488,-1.647735 3.356488,-1.647735 v 0 c 0.02715,-0.260344 0.05431,-0.520689 0.08146,-0.781036 0.197329,-2.804139 0.337198,-5.616004 0.323186,-8.427646 0.05103,-5.47166 0.224229,-10.940068 0.42912,-16.408006 0.116369,-3.119871 0.122674,-3.385105 0.249346,-6.421159 0.08147,-1.952652 0.202332,-3.908936 0.217784,-5.863945 0.0029,-0.363291 -0.0075,-0.726569 -0.01124,-1.089856 -0.08694,-2.629984 -0.157766,-5.26046 -0.256696,-7.889959 -0.09428,-1.89297 -0.137949,-3.788913 -0.290367,-5.678434 0,0 -3.466298,1.862734 -3.466298,1.862734 z" />
    <path
       style="fill:#000000;stroke-width:1.85208;stroke-linejoin:round;stroke-miterlimit:4;stroke-dasharray:none"
       id="path11004"
       d="m 34.107159,20.175078 c 0.502423,1.815616 1.174232,3.579261 1.927619,5.304765 0.460762,1.055299 0.918544,2.113161 1.434944,3.142377 0.74549,1.485807 1.565976,2.93279 2.348966,4.399182 4.044661,7.404438 8.329575,14.674164 12.58207,21.960191 0,0 1.88881,-1.098835 1.88881,-1.098835 v 0 C 53.266355,52.337506 52.210141,50.813607 51.219933,49.247004 47.700009,43.678162 44.483207,37.913437 41.880517,31.853756 40.286003,27.981891 39.993906,27.527681 38.837293,23.931802 38.25549,22.122991 37.712612,20.248303 37.59808,18.341332 c 0,0 -3.490921,1.833746 -3.490921,1.833746 z" />
    <circle
       id="path11006"
       style="fill:#000000;stroke:#000000;stroke-width:0.264583"
       cx="53.116428"
       cy="54.016705"
       r="0.16788271" />
    <circle
       id="path11008"
       style="fill:#000000;stroke:#000000;stroke-width:0.264583"
       cx="53.116428"
       cy="54.016705"
       r="0.16788271" />
    <path
       style="fill:#000000;stroke-width:1.85208;stroke-linejoin:round;stroke-miterlimit:4;stroke-dasharray:none"
       id="path11012"
       d="m 54.234127,20.653688 c 0.237392,1.60072 0.490437,3.200004 0.732007,4.800428 0.133199,0.823733 0.265432,1.647623 0.399592,2.471199 0.624274,3.832289 0.58488,3.423933 1.166484,7.573894 0.611675,4.364511 1.130883,8.741037 1.694442,13.111863 0.698725,5.200836 1.268278,10.421067 1.415397,15.668697 0.02754,1.069742 -0.0048,2.138934 -0.05148,3.207408 0,0 3.341145,-1.706697 3.341145,-1.706697 v 0 c -0.0688,-1.029817 -0.138793,-2.059556 -0.214638,-3.088886 -0.09855,-1.191448 -0.184833,-2.357752 -0.329414,-3.546443 C 61.908451,55.205277 61.094386,51.312383 60.562391,47.380024 60.139659,44.546543 59.703996,41.741849 59.35201,38.897673 58.734253,33.90593 58.337793,28.890039 57.994568,23.873076 c -0.08418,-1.671234 -0.199385,-3.343371 -0.234056,-5.01617 0,0 -3.526385,1.796782 -3.526385,1.796782 z" />
    <path
       style="fill:#000000;stroke-width:1.85208;stroke-linejoin:round;stroke-miterlimit:4;stroke-dasharray:none"
       id="path11014"
       d="m 54.258102,33.271464 c 0.27692,1.86984 0.324686,3.77697 0.12493,5.65776 -0.09187,0.864976 -0.240493,1.722983 -0.360738,2.584474 -0.864714,5.112695 -2.617964,10.003634 -4.505335,14.812468 0,0 2.883799,-1.344573 2.883799,-1.344573 v 0 c 1.642835,-4.893649 3.313295,-9.791682 4.429006,-14.839196 0.179835,-0.899702 0.387393,-1.794304 0.539501,-2.699107 0.334119,-1.987476 0.372171,-3.996108 0.37976,-6.005572 0,0 -3.490923,1.833746 -3.490923,1.833746 z" />
    <path
       style="fill:#000000;stroke-width:1.85208;stroke-linejoin:round;stroke-miterlimit:4;stroke-dasharray:none"
       id="path11430"
       d="m 11.538771,38.98021 c 0.04029,-0.222755 0.06688,-0.448426 0.120878,-0.668263 0.633548,-2.579442 1.991303,-5.063191 3.393272,-7.290956 0.603903,-0.959618 1.267573,-1.880299 1.901359,-2.820448 2.28442,-3.109408 4.977064,-5.892502 8.040599,-8.242159 1.002889,-0.76919 2.05819,-1.469108 3.120156,-2.154433 0.233092,-0.150424 0.501928,-0.236652 0.756354,-0.347224 1.0396,-0.451801 2.083686,-0.893205 3.12553,-1.339808 3.739425,-1.391022 7.612245,-1.989552 11.594045,-1.629168 2.166739,0.196107 2.623568,0.415187 4.665411,0.976163 3.036625,1.051595 5.694142,2.880861 8.016081,5.077165 0.389919,0.36882 0.754943,0.763096 1.132416,1.144644 1.429878,1.50992 2.722034,3.153897 3.826696,4.916977 0.60512,0.965798 0.854889,1.482979 1.389425,2.493092 1.441031,2.919471 2.026613,6.138011 2.559248,9.320993 0.19984,1.240401 0.35923,2.487888 0.41874,3.743283 0,0 3.426161,-1.790983 3.426161,-1.790983 v 0 c -0.199782,-1.215703 -0.433991,-2.425354 -0.711713,-3.625874 -0.347268,-1.541227 -0.684961,-3.081988 -1.06561,-4.615535 -0.282281,-1.13725 -0.556937,-2.35395 -0.969941,-3.456537 -0.169989,-0.453814 -0.397978,-0.883735 -0.596969,-1.325603 -0.225234,-0.432641 -0.436803,-0.872677 -0.675706,-1.297925 -1.264555,-2.250922 -2.905564,-4.276487 -4.642831,-6.175242 -0.390338,-0.382513 -0.767684,-0.778753 -1.171014,-1.147541 -1.856113,-1.697151 -3.956757,-3.268762 -6.252343,-4.320214 -0.653393,-0.299275 -1.340895,-0.517649 -2.011344,-0.776473 -0.760521,-0.199436 -1.510149,-0.446353 -2.28156,-0.598309 -3.65928,-0.720817 -7.698605,-0.596819 -11.307778,0.324848 -1.044247,0.266667 -2.054683,0.651558 -3.082023,0.977338 -1.061818,0.450016 -2.160034,0.822322 -3.185448,1.350048 -2.982338,1.53485 -5.950571,3.228711 -8.606102,5.301063 -3.081131,2.404487 -5.783825,5.246948 -8.13643,8.361507 -0.681418,0.967853 -1.389146,1.91771 -2.044254,2.903563 -1.740078,2.618592 -3.3338673,5.406668 -4.2476061,8.430297 0,0 3.5023011,-1.698286 3.5023011,-1.698286 z" />
    <path
       style="fill:#000000;stroke-width:1.85208;stroke-linejoin:round;stroke-miterlimit:4;stroke-dasharray:none"
       id="path11432"
       d="m 66.082576,46.523333 c -0.729422,0.425712 -1.458844,0.851421 -2.188263,1.277133 0,0 2.808724,-2.265831 2.808724,-2.265831 v 0 c -1.428144,0.811982 -2.856288,1.623965 -4.284432,2.435947 0,0 3.663971,-1.447249 3.663971,-1.447249 z" />
    <path
       style="fill:#000000;stroke-width:1.85208;stroke-linejoin:round;stroke-miterlimit:4;stroke-dasharray:none"
       id="path11434"
       d="m 66.978225,49.251015 c -0.325393,0.212151 -0.650783,0.424301 -0.976172,0.636452 0,0 2.557018,-2.053484 2.557018,-2.053484 v 0 c -1.627447,0.894935 -3.254894,1.789872 -4.882338,2.684809 0,0 3.301492,-1.267777 3.301492,-1.267777 z" />
  </g>
</svg>
