<svg width="267" height="78" viewBox="0 0 267 78" fill="none" xmlns="http://www.w3.org/2000/svg">
<path d="M78.3 1.0914C79.092 1.0914 79.776 1.3794 80.352 1.9554C80.928 2.5314 81.216 3.2154 81.216 4.0074V21.3954C81.216 22.1874 80.928 22.8714 80.352 23.4474C79.776 24.0234 79.092 24.3114 78.3 24.3114H55.08V73.7754C55.08 74.5674 54.792 75.2514 54.216 75.8274C53.64 76.4034 52.956 76.6914 52.164 76.6914H29.916C29.124 76.6914 28.44 76.4034 27.864 75.8274C27.288 75.2514 27 74.5674 27 73.7754V24.3114H3.77998C2.98798 24.3114 2.30398 24.0234 1.72798 23.4474C1.15198 22.8714 0.863984 22.1874 0.863984 21.3954V4.0074C0.863984 3.2154 1.15198 2.5314 1.72798 1.9554C2.30398 1.3794 2.98798 1.0914 3.77998 1.0914L78.3 1.0914ZM172.974 45.4794C172.974 56.4954 169.302 64.6314 161.958 69.8874C154.686 75.1434 144.966 77.7714 132.798 77.7714C120.63 77.7714 110.874 75.1434 103.53 69.8874C96.2578 64.6314 92.6218 56.4234 92.6218 45.2634V32.5194C92.6218 25.1754 94.3498 19.0914 97.8058 14.2674C101.334 9.3714 106.122 5.7714 112.17 3.4674C118.218 1.1634 125.094 0.0114021 132.798 0.0114021C140.502 0.0114021 147.342 1.1634 153.318 3.4674C159.366 5.7714 164.154 9.3354 167.682 14.1594C171.21 18.9834 172.974 25.0314 172.974 32.3034V45.4794ZM121.782 47.5314C121.782 50.4834 122.754 52.7514 124.698 54.3354C126.714 55.9194 129.414 56.7114 132.798 56.7114C136.182 56.7114 138.846 55.9194 140.79 54.3354C142.806 52.6794 143.814 50.3754 143.814 47.4234V30.3594C143.814 27.4074 142.806 25.1394 140.79 23.5554C138.846 21.8994 136.182 21.0714 132.798 21.0714C129.414 21.0714 126.714 21.8634 124.698 23.4474C122.754 25.0314 121.782 27.2994 121.782 30.2514V47.5314ZM238.704 4.0074C239.784 2.0634 241.332 1.0914 243.348 1.0914L263.112 1.0914C263.904 1.0914 264.588 1.3794 265.164 1.9554C265.74 2.5314 266.028 3.2154 266.028 4.0074V73.7754C266.028 74.5674 265.74 75.2514 265.164 75.8274C264.588 76.4034 263.904 76.6914 263.112 76.6914H243.564C242.772 76.6914 242.088 76.4034 241.512 75.8274C240.936 75.2514 240.648 74.5674 240.648 73.7754V40.2954L232.764 55.8474C232.548 56.3514 232.044 56.9274 231.252 57.5754C230.46 58.2234 229.452 58.5474 228.228 58.5474H220.884C219.66 58.5474 218.652 58.2234 217.86 57.5754C217.068 56.9274 216.564 56.3514 216.348 55.8474L208.464 40.2954V73.7754C208.464 74.5674 208.176 75.2514 207.6 75.8274C207.024 76.4034 206.34 76.6914 205.548 76.6914H186C185.208 76.6914 184.524 76.4034 183.948 75.8274C183.372 75.2514 183.084 74.5674 183.084 73.7754V4.0074C183.084 3.2154 183.372 2.5314 183.948 1.9554C184.524 1.3794 185.208 1.0914 186 1.0914H205.764C207.78 1.0914 209.328 2.0634 210.408 4.0074L224.556 29.9274L238.704 4.0074Z" fill="#D5FF40"/>
</svg>
